<?xml version="1.0" encoding="UTF-8" standalone="no"?>
<!-- Created with Inkscape (http://www.inkscape.org/) -->

<svg
   xmlns:dc="http://purl.org/dc/elements/1.1/"
   xmlns:cc="http://creativecommons.org/ns#"
   xmlns:rdf="http://www.w3.org/1999/02/22-rdf-syntax-ns#"
   xmlns:svg="http://www.w3.org/2000/svg"
   xmlns="http://www.w3.org/2000/svg"
   xmlns:sodipodi="http://sodipodi.sourceforge.net/DTD/sodipodi-0.dtd"
   xmlns:inkscape="http://www.inkscape.org/namespaces/inkscape"
   width="210mm"
   height="297mm"
   viewBox="0 0 744.09448819 1052.3622047"
   id="svg17557"
   version="1.1"
   inkscape:version="0.91 r13725"
   sodipodi:docname="fig001.svg"
   inkscape:export-filename="/home/arm61/work/teaching/Advanced_Practical_Chemistry_Teaching/course/week_1/figures/fig001.png"
   inkscape:export-xdpi="300"
   inkscape:export-ydpi="300">
  <defs
     id="defs17559" />
  <sodipodi:namedview
     id="base"
     pagecolor="#ffffff"
     bordercolor="#666666"
     borderopacity="1.0"
     inkscape:pageopacity="0.0"
     inkscape:pageshadow="2"
     inkscape:zoom="1.4142136"
     inkscape:cx="374.28788"
     inkscape:cy="628.89214"
     inkscape:document-units="px"
     inkscape:current-layer="layer1"
     showgrid="true"
     inkscape:window-width="1855"
     inkscape:window-height="1056"
     inkscape:window-x="1145"
     inkscape:window-y="1380"
     inkscape:window-maximized="1">
    <inkscape:grid
       type="xygrid"
       id="grid18113" />
  </sodipodi:namedview>
  <metadata
     id="metadata17562">
    <rdf:RDF>
      <cc:Work
         rdf:about="">
        <dc:format>image/svg+xml</dc:format>
        <dc:type
           rdf:resource="http://purl.org/dc/dcmitype/StillImage" />
        <dc:title></dc:title>
      </cc:Work>
    </rdf:RDF>
  </metadata>
  <g
     inkscape:label="Layer 1"
     inkscape:groupmode="layer"
     id="layer1">
    <path
       style="fill:none;fill-rule:evenodd;stroke:#000000;stroke-width:1.00761652;stroke-linecap:butt;stroke-linejoin:miter;stroke-miterlimit:4;stroke-dasharray:none;stroke-opacity:1"
       d="m 137.35967,377.17057 16.73387,0 c 0,0 4.78104,-9.56216 11.95275,-9.56216 7.1716,0 7.1716,7.17156 7.1716,9.56216 0,2.39056 0,9.56199 -4.78113,9.56199 -2.39047,0 -4.78104,-2.39046 -4.78104,-9.56199 0,-7.17174 4.78104,-9.56216 9.56217,-9.56216"
       id="path18145"
       inkscape:connector-curvature="0"
       sodipodi:nodetypes="ccscssc"
       inkscape:export-xdpi="300"
       inkscape:export-ydpi="300" />
    <path
       sodipodi:nodetypes="ccscssc"
       inkscape:connector-curvature="0"
       id="path18147"
       d="m 172.83678,367.612 0.81622,-0.0146 c 0,0 0.46321,0.0182 2.85374,0.0182 7.17151,0 7.17151,7.17176 7.17151,9.56223 0,2.39063 0,9.56235 -4.78099,9.56235 -2.39052,0 -4.78105,-2.39087 -4.78105,-9.56235 0,-7.17169 4.78105,-9.56223 9.56204,-9.56223"
       style="fill:none;fill-rule:evenodd;stroke:#000000;stroke-width:1.00761652;stroke-linecap:butt;stroke-linejoin:miter;stroke-miterlimit:4;stroke-dasharray:none;stroke-opacity:1"
       inkscape:export-xdpi="300"
       inkscape:export-ydpi="300" />
    <path
       style="fill:none;fill-rule:evenodd;stroke:#000000;stroke-width:1.00761652;stroke-linecap:butt;stroke-linejoin:miter;stroke-miterlimit:4;stroke-dasharray:none;stroke-opacity:1"
       d="m 183.35522,367.612 0.8161,-0.0146 c 0,0 0.46322,0.0182 2.85369,0.0182 7.17161,0 7.17161,7.17176 7.17161,9.56223 0,2.39063 0,9.56235 -4.78102,9.56235 -2.39059,0 -4.78106,-2.39087 -4.78106,-9.56235 0,-7.17169 4.78106,-9.56223 9.56208,-9.56223"
       id="path18149"
       inkscape:connector-curvature="0"
       sodipodi:nodetypes="ccscssc"
       inkscape:export-xdpi="300"
       inkscape:export-ydpi="300" />
    <path
       style="fill:none;fill-rule:evenodd;stroke:#000000;stroke-width:1.00761652;stroke-linecap:butt;stroke-linejoin:miter;stroke-miterlimit:4;stroke-dasharray:none;stroke-opacity:1"
       d="m 172.83678,367.612 0.81622,-0.0146 c 0,0 0.46321,0.0182 2.85374,0.0182 7.17151,0 7.17151,7.17176 7.17151,9.56223 0,2.39063 0,9.56235 -4.78099,9.56235 -2.39052,0 -4.78105,-2.39087 -4.78105,-9.56235 0,-7.17169 4.78105,-9.56223 9.56204,-9.56223"
       id="path18151"
       inkscape:connector-curvature="0"
       sodipodi:nodetypes="ccscssc"
       inkscape:export-xdpi="300"
       inkscape:export-ydpi="300" />
    <path
       sodipodi:nodetypes="ccscssc"
       inkscape:connector-curvature="0"
       id="path18153"
       d="m 183.35522,367.612 0.8161,-0.0146 c 0,0 0.46322,0.0182 2.85369,0.0182 7.17161,0 7.17161,7.17176 7.17161,9.56223 0,2.39063 0,9.56235 -4.78102,9.56235 -2.39059,0 -4.78106,-2.39087 -4.78106,-9.56235 0,-7.17169 4.78106,-9.56223 9.56208,-9.56223"
       style="fill:none;fill-rule:evenodd;stroke:#000000;stroke-width:1.00761652;stroke-linecap:butt;stroke-linejoin:miter;stroke-miterlimit:4;stroke-dasharray:none;stroke-opacity:1"
       inkscape:export-xdpi="300"
       inkscape:export-ydpi="300" />
    <path
       sodipodi:nodetypes="ccscssc"
       inkscape:connector-curvature="0"
       id="path18155"
       d="m 193.87356,367.612 0.81632,-0.0146 c 0,0 0.46307,0.0182 2.85356,0.0182 7.17152,0 7.17152,7.17176 7.17152,9.56223 0,2.39063 0,9.56235 -4.78101,9.56235 -2.39051,0 -4.781,-2.39087 -4.781,-9.56235 0,-7.17169 4.781,-9.56223 9.56201,-9.56223"
       style="fill:none;fill-rule:evenodd;stroke:#000000;stroke-width:1.00761652;stroke-linecap:butt;stroke-linejoin:miter;stroke-miterlimit:4;stroke-dasharray:none;stroke-opacity:1"
       inkscape:export-xdpi="300"
       inkscape:export-ydpi="300" />
    <path
       style="fill:none;fill-rule:evenodd;stroke:#000000;stroke-width:1.00761652;stroke-linecap:butt;stroke-linejoin:miter;stroke-miterlimit:4;stroke-dasharray:none;stroke-opacity:1"
       d="m 204.39198,367.612 0.8161,-0.0146 c 0,0 0.46314,0.0182 2.85371,0.0182 7.17168,0 7.17168,7.17176 7.17168,9.56223 0,2.39063 0,9.56235 -4.78116,9.56235 -2.39052,0 -4.78109,-2.39087 -4.78109,-9.56235 0,-7.17169 4.78109,-9.56223 9.56225,-9.56223"
       id="path18157"
       inkscape:connector-curvature="0"
       sodipodi:nodetypes="ccscssc"
       inkscape:export-xdpi="300"
       inkscape:export-ydpi="300" />
    <path
       sodipodi:nodetypes="ccscssc"
       inkscape:connector-curvature="0"
       id="path18161"
       d="m 214.94916,367.612 0.81604,-0.0146 c 0,0 0.46327,0.0182 2.85383,0.0182 7.17146,0 7.17146,7.17176 7.17146,9.56223 0,2.39063 0,9.56235 -4.7809,9.56235 -2.39056,0 -4.78112,-2.39087 -4.78112,-9.56235 0,-7.17169 5.05203,-9.58387 9.833,-9.58387"
       style="fill:none;fill-rule:evenodd;stroke:#000000;stroke-width:1.00761652;stroke-linecap:butt;stroke-linejoin:miter;stroke-miterlimit:4;stroke-dasharray:none;stroke-opacity:1"
       inkscape:export-xdpi="300"
       inkscape:export-ydpi="300" />
    <path
       sodipodi:nodetypes="ccscssc"
       inkscape:connector-curvature="0"
       id="path18163"
       d="m 262.63351,377.17057 -16.73394,0 c 0,0 -4.78089,-9.56216 -11.95259,-9.56216 -7.17157,0 -7.17157,7.17156 -7.17157,9.56216 0,2.39056 0,9.56199 4.78106,9.56199 2.39051,0 4.78107,-2.39046 4.78107,-9.56199 0,-7.17174 -5.49637,-9.5731 -10.27718,-9.5731"
       style="fill:none;fill-rule:evenodd;stroke:#000000;stroke-width:1.00761652;stroke-linecap:butt;stroke-linejoin:miter;stroke-miterlimit:4;stroke-dasharray:none;stroke-opacity:1"
       inkscape:export-xdpi="300"
       inkscape:export-ydpi="300" />
    <circle
       r="25.191996"
       cy="377.17001"
       cx="125.19182"
       id="circle18107"
       style="opacity:1;fill:#0173b2;fill-opacity:1;stroke:none;stroke-width:5;stroke-linecap:round;stroke-miterlimit:4;stroke-dasharray:none;stroke-dashoffset:0;stroke-opacity:1"
       inkscape:export-xdpi="300"
       inkscape:export-ydpi="300" />
    <circle
       style="opacity:1;fill:#0173b2;fill-opacity:1;stroke:none;stroke-width:5;stroke-linecap:round;stroke-miterlimit:4;stroke-dasharray:none;stroke-dashoffset:0;stroke-opacity:1"
       id="path18105"
       cx="274.80783"
       cy="377.17001"
       r="25.191996"
       inkscape:export-xdpi="300"
       inkscape:export-ydpi="300" />
    <path
       inkscape:export-ydpi="300"
       inkscape:export-xdpi="300"
       sodipodi:nodetypes="ccscssc"
       inkscape:connector-curvature="0"
       id="path18241"
       d="m 379.75813,332.47532 14.49195,8.36694 c 0,0 8.92158,-5.89055 15.13247,-2.3047 6.21078,3.5858 2.625,9.79655 1.4297,11.86687 -1.19528,2.07029 -4.78099,8.28093 -8.92157,5.89037 -2.07021,-1.19524 -2.94527,-4.46072 0.64049,-10.67145 3.58587,-6.21091 8.92158,-5.89055 13.06216,-3.49999"
       style="fill:none;fill-rule:evenodd;stroke:#000000;stroke-width:1.00761652;stroke-linecap:butt;stroke-linejoin:miter;stroke-miterlimit:4;stroke-dasharray:none;stroke-opacity:1" />
    <path
       inkscape:export-ydpi="300"
       inkscape:export-xdpi="300"
       style="fill:none;fill-rule:evenodd;stroke:#000000;stroke-width:1.00761652;stroke-linecap:butt;stroke-linejoin:miter;stroke-miterlimit:4;stroke-dasharray:none;stroke-opacity:1"
       d="m 415.26149,341.93591 0.71417,0.39547 c 0,0 0.39205,0.24737 2.46231,1.44263 6.21071,3.58576 2.62483,9.79668 1.42959,11.86689 -1.19531,2.07035 -4.78117,8.28124 -8.92163,5.89074 -2.07025,-1.19526 -2.94508,-4.46107 0.64066,-10.67176 3.58585,-6.21086 8.92163,-5.89061 13.06209,-3.50011"
       id="path18243"
       inkscape:connector-curvature="0"
       sodipodi:nodetypes="ccscssc" />
    <path
       inkscape:export-ydpi="300"
       inkscape:export-xdpi="300"
       sodipodi:nodetypes="ccscssc"
       inkscape:connector-curvature="0"
       id="path18245"
       d="m 424.37073,347.19513 0.71406,0.39541 c 0,0 0.39206,0.24737 2.46227,1.44261 6.21079,3.5858 2.62491,9.79673 1.42968,11.86694 -1.19532,2.07034 -4.78118,8.28123 -8.92166,5.89072 -2.07031,-1.19529 -2.94509,-4.46108 0.64065,-10.67176 3.58585,-6.21087 8.92164,-5.89061 13.06212,-3.5001"
       style="fill:none;fill-rule:evenodd;stroke:#000000;stroke-width:1.00761652;stroke-linecap:butt;stroke-linejoin:miter;stroke-miterlimit:4;stroke-dasharray:none;stroke-opacity:1" />
    <path
       inkscape:export-ydpi="300"
       inkscape:export-xdpi="300"
       sodipodi:nodetypes="ccscssc"
       inkscape:connector-curvature="0"
       id="path18247"
       d="m 415.26149,341.93591 0.71417,0.39547 c 0,0 0.39205,0.24737 2.46231,1.44263 6.21071,3.58576 2.62483,9.79668 1.42959,11.86689 -1.19531,2.07035 -4.78117,8.28124 -8.92163,5.89074 -2.07025,-1.19526 -2.94508,-4.46107 0.64066,-10.67176 3.58585,-6.21086 8.92163,-5.89061 13.06209,-3.50011"
       style="fill:none;fill-rule:evenodd;stroke:#000000;stroke-width:1.00761652;stroke-linecap:butt;stroke-linejoin:miter;stroke-miterlimit:4;stroke-dasharray:none;stroke-opacity:1" />
    <path
       inkscape:export-ydpi="300"
       inkscape:export-xdpi="300"
       style="fill:none;fill-rule:evenodd;stroke:#000000;stroke-width:1.00761652;stroke-linecap:butt;stroke-linejoin:miter;stroke-miterlimit:4;stroke-dasharray:none;stroke-opacity:1"
       d="m 424.37073,347.19513 0.71406,0.39541 c 0,0 0.39206,0.24737 2.46227,1.44261 6.21079,3.5858 2.62491,9.79673 1.42968,11.86694 -1.19532,2.07034 -4.78118,8.28123 -8.92166,5.89072 -2.07031,-1.19529 -2.94509,-4.46108 0.64065,-10.67176 3.58585,-6.21087 8.92164,-5.89061 13.06212,-3.5001"
       id="path18249"
       inkscape:connector-curvature="0"
       sodipodi:nodetypes="ccscssc" />
    <path
       inkscape:export-ydpi="300"
       inkscape:export-xdpi="300"
       style="fill:none;fill-rule:evenodd;stroke:#000000;stroke-width:1.00761652;stroke-linecap:butt;stroke-linejoin:miter;stroke-miterlimit:4;stroke-dasharray:none;stroke-opacity:1"
       d="m 433.47987,352.4543 0.71426,0.39552 c 0,0 0.39193,0.2473 2.46215,1.44254 6.21072,3.58576 2.62484,9.79669 1.42961,11.8669 -1.19532,2.07034 -4.78118,8.28123 -8.92165,5.89073 -2.07025,-1.19526 -2.94504,-4.46105 0.6407,-10.67174 3.58585,-6.21086 8.92159,-5.89063 13.06206,-3.50013"
       id="path18251"
       inkscape:connector-curvature="0"
       sodipodi:nodetypes="ccscssc" />
    <path
       inkscape:export-ydpi="300"
       inkscape:export-xdpi="300"
       sodipodi:nodetypes="ccscssc"
       inkscape:connector-curvature="0"
       id="path18253"
       d="m 442.58909,357.71351 0.71407,0.39541 c 0,0 0.39199,0.24733 2.46228,1.44262 6.21086,3.58584 2.62498,9.79676 1.42974,11.86697 -1.19531,2.07035 -4.78117,8.28124 -8.92178,5.89066 -2.07025,-1.19526 -2.94511,-4.4611 0.64063,-10.67178 3.58585,-6.21087 8.92166,-5.89059 13.06227,-3.50001"
       style="fill:none;fill-rule:evenodd;stroke:#000000;stroke-width:1.00761652;stroke-linecap:butt;stroke-linejoin:miter;stroke-miterlimit:4;stroke-dasharray:none;stroke-opacity:1" />
    <path
       inkscape:export-ydpi="300"
       inkscape:export-xdpi="300"
       style="fill:none;fill-rule:evenodd;stroke:#000000;stroke-width:1.00761652;stroke-linecap:butt;stroke-linejoin:miter;stroke-miterlimit:4;stroke-dasharray:none;stroke-opacity:1"
       d="m 451.73188,362.9921 0.71401,0.39538 c 0,0 0.3921,0.2474 2.46239,1.44268 6.21067,3.58573 2.62479,9.79665 1.42955,11.86686 -1.19531,2.07035 -4.78117,8.28124 -8.92155,5.89079 -2.07029,-1.19528 -2.94514,-4.46111 0.6406,-10.6718 3.58584,-6.21086 9.16712,-5.77386 13.30756,-3.38337"
       id="path18255"
       inkscape:connector-curvature="0"
       sodipodi:nodetypes="ccscssc" />
    <path
       inkscape:export-ydpi="300"
       inkscape:export-xdpi="300"
       style="fill:none;fill-rule:evenodd;stroke:#000000;stroke-width:1.00761652;stroke-linecap:butt;stroke-linejoin:miter;stroke-miterlimit:4;stroke-dasharray:none;stroke-opacity:1"
       d="m 488.24845,395.11224 -14.49201,-8.36697 c 0,0 0.6407,-10.67151 -5.57017,-14.25736 -6.21076,-3.58579 -9.79654,2.62496 -10.99184,4.69528 -1.19528,2.07029 -4.781,8.28093 -0.64048,10.67146 2.07024,1.19526 5.33576,0.32034 8.92153,-5.89039 3.58587,-6.21091 0.0265,-11.03873 -4.11375,-13.42914"
       id="path18257"
       inkscape:connector-curvature="0"
       sodipodi:nodetypes="ccscssc" />
    <circle
       inkscape:export-ydpi="300"
       inkscape:export-xdpi="300"
       style="opacity:1;fill:#0173b2;fill-opacity:1;stroke:none;stroke-width:5;stroke-linecap:round;stroke-miterlimit:4;stroke-dasharray:none;stroke-dashoffset:0;stroke-opacity:1"
       id="circle18259"
       cx="482.95001"
       cy="98.052452"
       r="25.191996"
       transform="matrix(0.8660254,0.5,-0.5,0.8660254,0,0)" />
    <path
       style="fill:none;fill-opacity:1;fill-rule:evenodd;stroke:#000000;stroke-width:1.00761652;stroke-linecap:butt;stroke-linejoin:miter;stroke-miterlimit:4;stroke-dasharray:none;stroke-opacity:1"
       d="m 617.82534,332.47436 -14.49196,8.36693 c 0,0 0.64058,10.67159 -5.57031,14.25745 -6.21078,3.58579 -9.79656,-2.62496 -10.99186,-4.69528 -1.19528,-2.07029 -4.781,-8.28092 -0.64042,-10.67149 2.07021,-1.19523 5.33573,-0.32032 8.9215,5.89041 3.58587,6.2109 0.64058,10.67159 -3.5,13.06215"
       id="path18263"
       inkscape:connector-curvature="0"
       sodipodi:nodetypes="ccscssc"
       inkscape:export-xdpi="300"
       inkscape:export-ydpi="300" />
    <path
       sodipodi:nodetypes="ccscssc"
       inkscape:connector-curvature="0"
       id="path18265"
       d="m 591.88055,358.49088 -0.69958,0.42075 c 0,0 -0.41025,0.21584 -2.48051,1.41111 -6.21071,3.58575 -9.79658,-2.62517 -10.99182,-4.69539 -1.19532,-2.07034 -4.78118,-8.28123 -0.64071,-10.67172 2.07025,-1.19526 5.33594,-0.31998 8.92168,5.8907 3.58584,6.21087 0.6406,10.67167 -3.49986,13.06216"
       style="fill:none;fill-opacity:1;fill-rule:evenodd;stroke:#000000;stroke-width:1.00761652;stroke-linecap:butt;stroke-linejoin:miter;stroke-miterlimit:4;stroke-dasharray:none;stroke-opacity:1"
       inkscape:export-xdpi="300"
       inkscape:export-ydpi="300" />
    <path
       style="fill:none;fill-opacity:1;fill-rule:evenodd;stroke:#000000;stroke-width:1.00761652;stroke-linecap:butt;stroke-linejoin:miter;stroke-miterlimit:4;stroke-dasharray:none;stroke-opacity:1"
       d="m 582.77131,363.7501 -0.69947,0.42069 c 0,0 -0.41026,0.21585 -2.48047,1.41108 -6.21079,3.5858 -9.79667,-2.62512 -10.99191,-4.69533 -1.19531,-2.07035 -4.78117,-8.28124 -0.64068,-10.67174 2.0703,-1.1953 5.33595,-0.31999 8.92169,5.8907 3.58584,6.21087 0.64059,10.67167 -3.49989,13.06217"
       id="path18267"
       inkscape:connector-curvature="0"
       sodipodi:nodetypes="ccscssc"
       inkscape:export-xdpi="300"
       inkscape:export-ydpi="300" />
    <path
       style="fill:none;fill-opacity:1;fill-rule:evenodd;stroke:#000000;stroke-width:1.00761652;stroke-linecap:butt;stroke-linejoin:miter;stroke-miterlimit:4;stroke-dasharray:none;stroke-opacity:1"
       d="m 591.88055,358.49088 -0.69958,0.42075 c 0,0 -0.41025,0.21584 -2.48051,1.41111 -6.21071,3.58575 -9.79658,-2.62517 -10.99182,-4.69539 -1.19532,-2.07034 -4.78118,-8.28123 -0.64071,-10.67172 2.07025,-1.19526 5.33594,-0.31998 8.92168,5.8907 3.58584,6.21087 0.6406,10.67167 -3.49986,13.06216"
       id="path18269"
       inkscape:connector-curvature="0"
       sodipodi:nodetypes="ccscssc"
       inkscape:export-xdpi="300"
       inkscape:export-ydpi="300" />
    <path
       sodipodi:nodetypes="ccscssc"
       inkscape:connector-curvature="0"
       id="path18271"
       d="m 582.77131,363.7501 -0.69947,0.42069 c 0,0 -0.41026,0.21585 -2.48047,1.41108 -6.21079,3.5858 -9.79667,-2.62512 -10.99191,-4.69533 -1.19531,-2.07035 -4.78117,-8.28124 -0.64068,-10.67174 2.0703,-1.1953 5.33595,-0.31999 8.92169,5.8907 3.58584,6.21087 0.64059,10.67167 -3.49989,13.06217"
       style="fill:none;fill-opacity:1;fill-rule:evenodd;stroke:#000000;stroke-width:1.00761652;stroke-linecap:butt;stroke-linejoin:miter;stroke-miterlimit:4;stroke-dasharray:none;stroke-opacity:1"
       inkscape:export-xdpi="300"
       inkscape:export-ydpi="300" />
    <path
       sodipodi:nodetypes="ccscssc"
       inkscape:connector-curvature="0"
       id="path18273"
       d="m 573.66216,369.00926 -0.69966,0.42081 c 0,0 -0.41013,0.21577 -2.48035,1.41101 -6.21072,3.58576 -9.7966,-2.62516 -10.99184,-4.69537 -1.19531,-2.07035 -4.78117,-8.28124 -0.6407,-10.67174 2.07025,-1.19526 5.33591,-0.31995 8.92165,5.89073 3.58584,6.21087 0.64064,10.67164 -3.49983,13.06214"
       style="fill:none;fill-opacity:1;fill-rule:evenodd;stroke:#000000;stroke-width:1.00761652;stroke-linecap:butt;stroke-linejoin:miter;stroke-miterlimit:4;stroke-dasharray:none;stroke-opacity:1"
       inkscape:export-xdpi="300"
       inkscape:export-ydpi="300" />
    <path
       style="fill:none;fill-opacity:1;fill-rule:evenodd;stroke:#000000;stroke-width:1.00761652;stroke-linecap:butt;stroke-linejoin:miter;stroke-miterlimit:4;stroke-dasharray:none;stroke-opacity:1"
       d="m 564.55294,374.26847 -0.69947,0.4207 c 0,0 -0.41019,0.21581 -2.48048,1.41109 -6.21086,3.58584 -9.79673,-2.62508 -10.99197,-4.6953 -1.19532,-2.07034 -4.78118,-8.28123 -0.64057,-10.67182 2.07025,-1.19525 5.33598,-0.31999 8.92172,5.8907 3.58584,6.21087 0.64057,10.67168 -3.50004,13.06226"
       id="path18275"
       inkscape:connector-curvature="0"
       sodipodi:nodetypes="ccscssc"
       inkscape:export-xdpi="300"
       inkscape:export-ydpi="300" />
    <path
       sodipodi:nodetypes="ccscssc"
       inkscape:connector-curvature="0"
       id="path18277"
       d="m 555.41016,379.54706 -0.69942,0.42067 c 0,0 -0.4103,0.21586 -2.48059,1.41115 -6.21067,3.58573 -9.79654,-2.62519 -10.99178,-4.69541 -1.19532,-2.07034 -4.78118,-8.28123 -0.6408,-10.67168 2.07029,-1.19528 5.33601,-0.32001 8.92175,5.89068 3.58585,6.21086 0.41675,10.82589 -3.72369,13.21637"
       style="fill:none;fill-opacity:1;fill-rule:evenodd;stroke:#000000;stroke-width:1.00761652;stroke-linecap:butt;stroke-linejoin:miter;stroke-miterlimit:4;stroke-dasharray:none;stroke-opacity:1"
       inkscape:export-xdpi="300"
       inkscape:export-ydpi="300" />
    <path
       sodipodi:nodetypes="ccscssc"
       inkscape:connector-curvature="0"
       id="path18279"
       d="m 509.33501,395.11127 14.49202,-8.36696 c 0,0 8.92145,5.89062 15.13232,2.30477 6.21076,-3.58578 2.62499,-9.79653 1.42969,-11.86685 -1.19529,-2.07029 -4.781,-8.28094 -8.92152,-5.8904 -2.07024,1.19525 -2.9453,4.46073 0.64046,10.67146 3.58587,6.21091 9.54657,5.54232 13.68685,3.15196"
       style="fill:none;fill-opacity:1;fill-rule:evenodd;stroke:#000000;stroke-width:1.00761652;stroke-linecap:butt;stroke-linejoin:miter;stroke-miterlimit:4;stroke-dasharray:none;stroke-opacity:1"
       inkscape:export-xdpi="300"
       inkscape:export-ydpi="300" />
    <circle
       transform="matrix(-0.8660254,0.5,-0.5,-0.8660254,0,0)"
       r="25.191996"
       cy="-596.8446"
       cx="-380.98297"
       id="circle18281"
       style="opacity:1;fill:#0073b2;fill-opacity:1;stroke:none;stroke-width:5;stroke-linecap:round;stroke-miterlimit:4;stroke-dasharray:none;stroke-dashoffset:0;stroke-opacity:1"
       inkscape:export-xdpi="300"
       inkscape:export-ydpi="300" />
    <circle
       inkscape:export-ydpi="300"
       inkscape:export-xdpi="300"
       r="25.191996"
       cy="98.052452"
       cx="632.56604"
       id="circle18261"
       style="opacity:1;fill:#0073b2;fill-opacity:1;stroke:none;stroke-width:5;stroke-linecap:round;stroke-miterlimit:4;stroke-dasharray:none;stroke-dashoffset:0;stroke-opacity:1"
       transform="matrix(0.8660254,0.5,-0.5,0.8660254,0,0)" />
  </g>
</svg>
